# xmcd CD database file
#
# Track frame offsets:
#	183
#	71715
#	151023
#
# Disc length: 3132 seconds
#
# Revision: 0
# Processed by: cddbd v1.4PL0 Copyright (c) Steve Scherf et al.
# Submitted via: CDex 1.50
#
DISCID=1c0c3a03
DTITLE=Sonny Rollins - Aix en Provence 1959
DYEAR=1989
DGENRE=Jazz
TTITLE0=Woodin' You
TTITLE1=But Not For Me
TTITLE2=Lady Bird
EXTD=YEAR: 1989
EXTT0=
EXTT1=
EXTT2=
PLAYORDER=
